<svg width="26" height="26" viewBox="0 0 26 26" fill="none" xmlns="http://www.w3.org/2000/svg">
<g clip-path="url(#clip0_5_13)">
<path d="M24.7921 25.7915C25.4389 26.4347 26.4373 25.4419 25.7905 24.8127L20.5174 19.5552C22.3676 17.5203 23.3901 14.8736 23.386 12.1303C23.386 5.99186 18.366 1 12.193 1C6.01997 1 1 5.99186 1 12.1303C1 18.2687 6.01997 23.2606 12.193 23.2606C14.9772 23.2606 17.5504 22.2399 19.519 20.5479L24.7921 25.7915ZM2.40475 12.1303C2.40475 6.76091 6.80601 2.39828 12.1916 2.39828C17.5912 2.39828 21.9784 6.76091 21.9784 12.1303C21.9784 17.4997 17.5912 21.8623 12.1916 21.8623C6.80601 21.8623 2.40475 17.4997 2.40475 12.1303Z" fill="#FFFDEB"/>
</g>
<defs>
<clipPath id="clip0_5_13">
<rect width="25" height="25" fill="white" transform="translate(0.5 0.5)"/>
</clipPath>
</defs>
</svg>
