<svg width="36" height="37" viewBox="0 0 36 37" fill="none" xmlns="http://www.w3.org/2000/svg">
<path d="M29.0987 2.09877C29.4432 1.73463 29.8571 1.44323 30.3161 1.2418C30.7751 1.04037 31.2698 0.932992 31.771 0.926022C32.2721 0.919052 32.7696 1.01263 33.234 1.20122C33.6984 1.38981 34.1203 1.66958 34.4748 2.02401C34.8292 2.37843 35.109 2.80032 35.2976 3.26472C35.4861 3.72912 35.5797 4.22662 35.5727 4.7278C35.5658 5.22899 35.4584 5.72369 35.257 6.18267C35.0555 6.64165 34.7641 7.05559 34.4 7.40002L23.4125 18.3875C23.3979 18.402 23.3864 18.4193 23.3785 18.4383C23.3706 18.4572 23.3666 18.4776 23.3666 18.4981C23.3666 18.5187 23.3706 18.539 23.3785 18.558C23.3864 18.577 23.3979 18.5943 23.4125 18.6088L34.4 29.5963C34.7529 29.9434 35.0336 30.357 35.2259 30.8131C35.4182 31.2693 35.5182 31.759 35.5203 32.254C35.5224 32.7491 35.4264 33.2396 35.238 33.6973C35.0495 34.1551 34.7723 34.571 34.4223 34.9211C34.0723 35.2712 33.6565 35.5485 33.1988 35.737C32.7411 35.9256 32.2505 36.0217 31.7555 36.0197C31.2605 36.0177 30.7708 35.9178 30.3146 35.7256C29.8584 35.5335 29.4447 35.2529 29.0975 34.9L18.11 23.9125C18.0955 23.898 18.0782 23.8864 18.0593 23.8785C18.0403 23.8707 18.0199 23.8666 17.9994 23.8666C17.9788 23.8666 17.9585 23.8707 17.9395 23.8785C17.9205 23.8864 17.9033 23.898 17.8887 23.9125L6.90125 34.9C6.55411 35.2529 6.14054 35.5336 5.68438 35.7259C5.22823 35.9182 4.73851 36.0183 4.24349 36.0203C3.74847 36.0224 3.25794 35.9264 2.80018 35.738C2.34243 35.5495 1.92652 35.2723 1.57645 34.9223C1.22637 34.5723 0.94905 34.1565 0.760489 33.6988C0.571928 33.2411 0.475855 32.7506 0.477813 32.2555C0.47977 31.7605 0.579718 31.2708 0.771892 30.8146C0.964066 30.3584 1.24466 29.9447 1.5975 29.5975L12.585 18.61C12.5995 18.5955 12.6111 18.5783 12.619 18.5593C12.6268 18.5403 12.6309 18.5199 12.6309 18.4994C12.6309 18.4788 12.6268 18.4585 12.619 18.4395C12.6111 18.4205 12.5995 18.4033 12.585 18.3888L1.5975 7.40127C0.903613 6.69616 0.51646 5.74542 0.520371 4.75616C0.524282 3.7669 0.91894 2.81925 1.61838 2.11965C2.31782 1.42004 3.26537 1.02516 4.25463 1.02102C5.2439 1.01687 6.19472 1.4038 6.9 2.09752L17.8875 13.085C17.902 13.0996 17.9193 13.1111 17.9382 13.119C17.9572 13.1269 17.9776 13.1309 17.9981 13.1309C18.0187 13.1309 18.039 13.1269 18.058 13.119C18.077 13.1111 18.0942 13.0996 18.1087 13.085L29.0987 2.09877Z" fill="#F6F6F6"/>
</svg>
